<svg id="レイヤー_1" data-name="レイヤー 1" xmlns="http://www.w3.org/2000/svg" viewBox="0 0 969 351"><defs><style>.cls-1{fill:#fff;}.cls-2{fill:#b08b5f;}.cls-3,.cls-4,.cls-6{fill:none;stroke-miterlimit:10;}.cls-3{stroke:#b08b5f;}.cls-4{stroke:#c69c6d;}.cls-5{font-size:45px;}.cls-5,.cls-7{font-family:TsukuARdGothicStd-B-83pv-RKSJ-H, FOT-TsukuARdGothic Std;}.cls-6{stroke:#000;stroke-width:5px;}.cls-7{font-size:36.5px;}</style></defs><title>callender_brown</title><rect class="cls-1" x="4.88" y="5.56" width="959" height="341" rx="44.73"/><path class="cls-2" d="M919.15,6.06a44.28,44.28,0,0,1,44.23,44.23V301.83a44.28,44.28,0,0,1-44.23,44.23H49.61A44.28,44.28,0,0,1,5.38,301.83V50.29A44.28,44.28,0,0,1,49.61,6.06H919.15m0-1H49.61A45.23,45.23,0,0,0,4.38,50.29V301.83a45.23,45.23,0,0,0,45.23,45.23H919.15a45.23,45.23,0,0,0,45.23-45.23V50.29A45.23,45.23,0,0,0,919.15,5.06Z"/><path class="cls-2" d="M964.38,105.82H4.38V51.48A46,46,0,0,1,50.33,5.53H918.44a45.94,45.94,0,0,1,45.94,45.95Z"/><line class="cls-3" x1="5.38" y1="226.56" x2="963.88" y2="226.56"/><line class="cls-4" x1="337.88" y1="5.56" x2="337.88" y2="346.56"/><line class="cls-4" x1="412.88" y1="5.56" x2="413.88" y2="346.56"/><line class="cls-4" x1="487.88" y1="5.56" x2="487.88" y2="346.56"/><line class="cls-4" x1="562.88" y1="5.56" x2="562.88" y2="346.56"/><line class="cls-4" x1="638.88" y1="5.56" x2="638.88" y2="346.56"/><line class="cls-4" x1="714.88" y1="5.56" x2="714.88" y2="346.56"/><line class="cls-4" x1="790.88" y1="5.56" x2="790.88" y2="346.56"/><line class="cls-4" x1="866.88" y1="5.56" x2="866.88" y2="346.56"/><text class="cls-5" transform="translate(47.75 183.84)">9:00~12:00</text><text class="cls-5" transform="translate(34.25 303.84)">15:00~19:00</text><circle cx="375.38" cy="166.06" r="20"/><circle cx="375.38" cy="285.06" r="20"/><circle cx="451.38" cy="285.06" r="20"/><circle cx="450.38" cy="285.06" r="20"/><circle cx="450.38" cy="166.06" r="20"/><circle cx="601.38" cy="166.06" r="20"/><circle cx="677.38" cy="166.06" r="20"/><circle cx="753.38" cy="166.06" r="20"/><circle cx="753.38" cy="285.06" r="20"/><circle cx="829.38" cy="285.06" r="20"/><circle cx="829.38" cy="166.06" r="20"/><circle cx="601.38" cy="285.06" r="20"/><circle cx="677.38" cy="285.06" r="20"/><line class="cls-6" x1="543.06" y1="183.74" x2="507.7" y2="148.38"/><line class="cls-6" x1="543.06" y1="148.38" x2="507.7" y2="183.74"/><line class="cls-6" x1="924.06" y1="183.74" x2="888.7" y2="148.38"/><line class="cls-6" x1="924.06" y1="148.38" x2="888.7" y2="183.74"/><line class="cls-6" x1="924.06" y1="302.74" x2="888.7" y2="267.38"/><line class="cls-6" x1="924.06" y1="267.38" x2="888.7" y2="302.74"/><line class="cls-6" x1="543.06" y1="302.74" x2="507.7" y2="267.38"/><line class="cls-6" x1="543.06" y1="267.38" x2="507.7" y2="302.74"/><text class="cls-7" transform="translate(357.38 68.09)">月</text><text class="cls-7" transform="translate(433.38 68.09)">火</text><text class="cls-7" transform="translate(507.38 68.09)">水</text><text class="cls-7" transform="translate(583.38 68.09)">木</text><text class="cls-7" transform="translate(659.38 68.09)">金</text><text class="cls-7" transform="translate(735.38 68.09)">土</text><text class="cls-7" transform="translate(811.38 68.09)">日</text><text class="cls-7" transform="translate(888.38 68.09)">祝</text></svg>