<svg id="レイヤー_1" data-name="レイヤー 1" xmlns="http://www.w3.org/2000/svg" viewBox="0 0 969 351"><defs><style>.cls-1{fill:#fff;}.cls-2{fill:#89b34c;}.cls-3,.cls-4,.cls-6{fill:none;stroke-miterlimit:10;}.cls-3{stroke:#89b34c;}.cls-4{stroke:#89c817;}.cls-5{font-size:45px;}.cls-5,.cls-7{font-family:TsukuARdGothicStd-B-83pv-RKSJ-H, FOT-TsukuARdGothic Std;}.cls-6{stroke:#000;stroke-width:5px;}.cls-7{font-size:36.5px;}</style></defs><title>callender_green</title><rect class="cls-1" x="4.88" y="5.56" width="959" height="341" rx="45.4"/><path class="cls-2" d="M918.48,6.06A45,45,0,0,1,963.38,51v250.2a45,45,0,0,1-44.9,44.9H50.29a45,45,0,0,1-44.91-44.9V51A45,45,0,0,1,50.29,6.06H918.48m0-1H50.29A45.9,45.9,0,0,0,4.38,51v250.2a45.9,45.9,0,0,0,45.91,45.9H918.48a45.9,45.9,0,0,0,45.9-45.9V51a45.9,45.9,0,0,0-45.9-45.9Z"/><path class="cls-2" d="M964.38,105.82H4.38V50.73a45.2,45.2,0,0,1,45.2-45.2H919.19a45.2,45.2,0,0,1,45.19,45.2Z"/><line class="cls-3" x1="5.38" y1="226.56" x2="963.88" y2="226.56"/><line class="cls-4" x1="337.88" y1="5.56" x2="337.88" y2="346.56"/><line class="cls-4" x1="412.88" y1="5.56" x2="413.88" y2="346.56"/><line class="cls-4" x1="487.88" y1="5.56" x2="487.88" y2="346.56"/><line class="cls-4" x1="562.88" y1="5.56" x2="562.88" y2="346.56"/><line class="cls-4" x1="638.88" y1="5.56" x2="638.88" y2="346.56"/><line class="cls-4" x1="714.88" y1="5.56" x2="714.88" y2="346.56"/><line class="cls-4" x1="790.88" y1="5.56" x2="790.88" y2="346.56"/><line class="cls-4" x1="866.88" y1="5.56" x2="866.88" y2="346.56"/><text class="cls-5" transform="translate(47.75 185.84)">9:00~12:00</text><text class="cls-5" transform="translate(34.25 305.84)">15:00~19:00</text><circle cx="375.38" cy="168.06" r="20"/><circle cx="375.38" cy="287.06" r="20"/><circle cx="451.38" cy="287.06" r="20"/><circle cx="450.38" cy="287.06" r="20"/><circle cx="450.38" cy="168.06" r="20"/><circle cx="601.38" cy="168.06" r="20"/><circle cx="677.38" cy="168.06" r="20"/><circle cx="753.38" cy="168.06" r="20"/><circle cx="753.38" cy="287.06" r="20"/><circle cx="829.38" cy="287.06" r="20"/><circle cx="829.38" cy="168.06" r="20"/><circle cx="601.38" cy="287.06" r="20"/><circle cx="677.38" cy="287.06" r="20"/><line class="cls-6" x1="543.06" y1="185.74" x2="507.7" y2="150.38"/><line class="cls-6" x1="543.06" y1="150.38" x2="507.7" y2="185.74"/><line class="cls-6" x1="924.06" y1="185.74" x2="888.7" y2="150.38"/><line class="cls-6" x1="924.06" y1="150.38" x2="888.7" y2="185.74"/><line class="cls-6" x1="924.06" y1="304.74" x2="888.7" y2="269.38"/><line class="cls-6" x1="924.06" y1="269.38" x2="888.7" y2="304.74"/><line class="cls-6" x1="543.06" y1="304.74" x2="507.7" y2="269.38"/><line class="cls-6" x1="543.06" y1="269.38" x2="507.7" y2="304.74"/><text class="cls-7" transform="translate(357.38 70.09)">月</text><text class="cls-7" transform="translate(433.38 70.09)">火</text><text class="cls-7" transform="translate(507.38 70.09)">水</text><text class="cls-7" transform="translate(583.38 70.09)">木</text><text class="cls-7" transform="translate(659.38 70.09)">金</text><text class="cls-7" transform="translate(735.38 70.09)">土</text><text class="cls-7" transform="translate(811.38 70.09)">日</text><text class="cls-7" transform="translate(888.38 70.09)">祝</text></svg>