<svg id="_2" data-name="2" xmlns="http://www.w3.org/2000/svg" viewBox="0 0 512 501.73"><defs><style>.cls-1{fill:#4b4b4b;}</style></defs><title>cat</title><path class="cls-1" d="M0,133.45a93.44,93.44,0,0,0,5.91,32.41A88.84,88.84,0,0,0,49.4,215.28a116.08,116.08,0,0,0,19.3,7.8,78.91,78.91,0,0,1,3.84,9.38,246.62,246.62,0,0,1,6.72,24.19c4.35,18.78,8.36,42,11.85,65.61,6.9,46.74,11.74,95,13.6,114.7a43.51,43.51,0,0,0-12.88,4.4,38.16,38.16,0,0,0-14.29,13.81c-6.42,10.75-7.49,22.45-7.55,31a78.57,78.57,0,0,0,1,12.9l1.42,7.76h297.4l1.18-.3c21.17-5.53,37.61-20.41,48.37-39.48.87-1.54,1.48-3.27,2.29-4.87a67.44,67.44,0,0,0,8.67-3.76,66.41,66.41,0,0,0,28.56-29.68c4.67-9.29,7.91-20.3,9.51-33.14a113.78,113.78,0,0,0,.87-14.1c0-25.83-8.16-50.27-17.58-72.95s-20.45-43.77-27.3-62c-4.62-12.12-7.28-22.85-7.24-31.2.08-7.08,1.55-12.28,5.21-17.44a34.24,34.24,0,0,1,12-10.75A28.88,28.88,0,0,1,447.7,184a34.53,34.53,0,0,1,24.05,10.38c6.76,6.81,11.56,16.52,11.89,29.49a14.18,14.18,0,0,0,28.36-.69c-.45-19.92-8.31-37-20.22-48.88a62.83,62.83,0,0,0-44.08-18.66A57.39,57.39,0,0,0,421.39,162a62.64,62.64,0,0,0-22.08,19.4,57,57,0,0,0-10.52,34c0,13.92,3.91,27.51,9.06,41.22s11.83,27.63,18.3,41.72c13,28.14,24.88,57,24.75,83.2a84.47,84.47,0,0,1-.64,10.59A77.45,77.45,0,0,1,435,412.76c.36-4.27.74-8.54.74-12.9,0-39.88-14.75-83.05-48-114.1a709.18,709.18,0,0,0-60.82-50.61l-.05,0c-19.78-14.9-37-26.65-51.29-37.3-12-8.94-21.65-17.11-29.22-25.54.94-2.09,1.9-4.18,2.71-6.42a93.44,93.44,0,0,0,5.91-32.41c0-20.23-6.78-36.91-13.42-48.5a102.74,102.74,0,0,0-11.23-16c-.61-6.85-2.34-23.34-6.24-37.62-1.71-6.19-3.73-12-7-17a21.19,21.19,0,0,0-8-7.6,15.43,15.43,0,0,0-6.92-1.66,23.11,23.11,0,0,0-9.94,2.44,42.08,42.08,0,0,0-8,5.15,95.41,95.41,0,0,0-13.27,13.48c-4.47,5.41-8.16,10.66-10.56,14.23H94.56a154.86,154.86,0,0,0-18.5-22.95A51.42,51.42,0,0,0,62.72,7.58a23,23,0,0,0-9.94-2.44A15.56,15.56,0,0,0,45.86,6.8a18.62,18.62,0,0,0-5,3.74,32.24,32.24,0,0,0-6,9.27c-3,6.67-4.95,14.44-6.5,22.14C26.24,53,25.11,63.77,24.63,69A103.86,103.86,0,0,0,13.42,85C6.78,96.54,0,113.22,0,133.45Zm18.9,0c0-15.42,5.06-28.62,10.4-38.17A79.6,79.6,0,0,1,40.47,79.65L43,77.16l.26-3.53.07-1c.06-.7.15-1.71.26-3,.24-2.55.63-6.16,1.18-10.28,1.07-8.2,2.88-18.53,5.34-26.21a34,34,0,0,1,3.86-8.75,3.42,3.42,0,0,1,.44.16A19.78,19.78,0,0,1,58.28,27a68.26,68.26,0,0,1,9.86,9.72,165.22,165.22,0,0,1,13,17.8l.21.32,2.77,4.49h44.21c.76,47.81,15.16,121.27,84.93,127.5a76.09,76.09,0,0,1-17.69,12.26L204.08,216a89.93,89.93,0,0,0,32.27-26.67c8.07,8.19,17.37,15.76,27.87,23.62,13.67,10.19,29.38,21,47,34.1-48.53,40.53-102,150-45.4,240.89H154.21a19.59,19.59,0,0,1-1.05-5.84,18.67,18.67,0,0,1,2.09-8.32,30.35,30.35,0,0,1,5.22-7.22,42.49,42.49,0,0,1,8.7-7l5.09-2.84-3.41-75.16h0l-18.89.85,2.9,64c-.91.68-1.9,1.44-3,2.31a53.4,53.4,0,0,0-13.32,16.12,37.44,37.44,0,0,0-4.32,17.24,35.9,35.9,0,0,0,.55,5.85H89c0-.6-.06-1.13-.06-1.77a49.61,49.61,0,0,1,2.53-16.39c2-5.24,4.79-9.24,9.53-11.87,3.21-1.77,7.59-3.05,14-3.06h10.3l-.88-10.27c0-.08-2.53-29-6.94-66.7,21.1-27.44,10.83-58.76-11.06-80.16-.47-2.86-.93-5.73-1.42-8.53-4-23-8.44-44-13.48-59.64-.17-.52-.33-1-.5-1.47,4.43.66,8.77,1.14,12.92,1.49l1.55-18.85c-15.34-1.25-32.56-4.52-47.33-12.23S31,179,23.65,159.32A74.54,74.54,0,0,1,18.9,133.45Z" transform="translate(0 -5.14)"/></svg>