<!--?xml version="1.0" encoding="utf-8"?-->
<!-- Generator: Adobe Illustrator 18.1.1, SVG Export Plug-In . SVG Version: 6.00 Build 0)  -->

<svg version="1.1" id="_x32_" xmlns="http://www.w3.org/2000/svg" xmlns:xlink="http://www.w3.org/1999/xlink" x="0px" y="0px" viewBox="0 0 512 512" style="width: 256px; height: 256px; opacity: 1;" xml:space="preserve">
<style type="text/css">
	.st0{fill:#4B4B4B;}
</style>
<g>
	<path class="st0" d="M256.004,0c-141.386,0-256,114.622-256,256.008c0,141.369,114.614,255.992,256,255.992
		c141.378,0,255.992-114.623,255.992-255.992C511.996,114.622,397.382,0,256.004,0z M353.141,283.328
		c-18.067,51.867-30.893,76.078-33.134,87.192c-4.517,22.433-33.126,22.433-39.143-1.406c-3.278-12.936-2.275-59.157-24.859-59.157
		c-22.584,0-21.581,46.221-24.859,59.157c-6.017,23.84-34.626,23.84-39.143,1.406c-2.242-11.114-15.067-35.325-33.135-87.192
		c-19.853-56.957-19.575-105.134,13.551-128.948c33.134-23.831,59.485-5.621,83.586-5.621c24.109,0,50.46-18.21,83.586,5.621
		C372.717,178.195,372.995,226.371,353.141,283.328z" style="fill: rgb(207, 224, 148);"></path>
</g>
</svg>
