<svg id="レイヤー_1" data-name="レイヤー 1" xmlns="http://www.w3.org/2000/svg" viewBox="0 0 908 908"><defs><style>.cls-1{fill:#cfe094;}.cls-2{fill:#fff;}</style></defs><title>needle</title><circle class="cls-1" cx="454" cy="454" r="454"/><path class="cls-2" d="M297.52,193h0a45.67,45.67,0,0,0-45.87,45.46v223A45.67,45.67,0,0,0,297.52,507h0a45.67,45.67,0,0,0,45.87-45.46v-223A45.67,45.67,0,0,0,297.52,193Zm18.64,271.34a14.27,14.27,0,0,1-14.34,14.2h-7.17a14.27,14.27,0,0,1-14.33-14.2V237.05a14.27,14.27,0,0,1,14.33-14.2h7.17a14.27,14.27,0,0,1,14.34,14.2Z" transform="translate(-46 -46)"/><rect class="cls-2" x="239.33" y="447.47" width="25.8" height="254.29"/><path class="cls-2" d="M518.83,194.87h0A45.67,45.67,0,0,0,473,240.33v223a45.66,45.66,0,0,0,45.87,45.45h0a45.66,45.66,0,0,0,45.87-45.45v-223A45.67,45.67,0,0,0,518.83,194.87Zm18.63,271.34a14.26,14.26,0,0,1-14.33,14.2H516a14.26,14.26,0,0,1-14.33-14.2V238.91A14.26,14.26,0,0,1,516,224.71h7.17a14.26,14.26,0,0,1,14.33,14.2Z" transform="translate(-46 -46)"/><rect class="cls-2" x="460.64" y="455.01" width="25.26" height="292.2"/><rect class="cls-2" x="487.06" y="483.06" width="25.22" height="620.66" transform="translate(-339.72 1247.06) rotate(-90)"/></svg>