<svg id="レイヤー_1" data-name="レイヤー 1" xmlns="http://www.w3.org/2000/svg" viewBox="0 0 908 908"><defs><style>.cls-1{fill:#cfe094;}.cls-2{fill:#fff;}</style></defs><title>vaccination</title><circle class="cls-1" cx="454" cy="454" r="454"/><path class="cls-2" d="M467.61,660a13.37,13.37,0,0,1-4.48,3,13.81,13.81,0,0,1-7.76.74,13.37,13.37,0,0,1-7-3.74L347.7,559.38a13.28,13.28,0,0,1-3-4.49,13.64,13.64,0,0,1-.74-7.76,13.36,13.36,0,0,1,3.73-7l208-208L524.6,301l-208,208a57.54,57.54,0,0,0,0,81.45L417.26,691.11a57,57,0,0,0,19.06,12.65,57.54,57.54,0,0,0,62.39-12.65l208-208-31.1-31.08Z" transform="translate(-46 -46)"/><path class="cls-2" d="M302.9,667.81c-6.93,7-8.29,16.86-3,22.11l17.94,18c5.26,5.27,15.15,3.9,22.11-3l33.67-33.67-37-37Z" transform="translate(-46 -46)"/><polygon class="cls-2" points="139.96 755.8 173.26 762.45 259.12 676.59 239.15 656.61 139.96 755.8"/><path class="cls-2" d="M595.29,218.5A39.26,39.26,0,0,0,539.77,274L733.71,468a39.26,39.26,0,0,0,55.52-55.52Z" transform="translate(-46 -46)"/><path class="cls-2" d="M847.23,263.16,744.55,160.5A39.25,39.25,0,1,0,689.06,216l10.61,10.61-31.1,31.11,31.1,31.08,31.09-31.08L750,277l-31.1,31.08L750,339.15l31.07-31.09,10.63,10.64a39.27,39.27,0,1,0,55.52-55.54Z" transform="translate(-46 -46)"/><rect class="cls-2" x="571.32" y="445.2" width="18.84" height="52.55" transform="translate(-209.29 502.74) rotate(-45)"/><polygon class="cls-2" points="491.97 505.42 505.29 492.09 468.11 454.93 454.79 468.26 491.97 505.42"/><rect class="cls-2" x="464.14" y="552.35" width="18.84" height="52.58" transform="translate(-316.46 458.34) rotate(-45)"/></svg>